<?xml version="1.0" standalone="no"?><!DOCTYPE svg PUBLIC "-//W3C//DTD SVG 1.1//EN" "http://www.w3.org/Graphics/SVG/1.1/DTD/svg11.dtd"><svg t="1742373487625" class="icon" viewBox="0 0 1024 1024" version="1.1" xmlns="http://www.w3.org/2000/svg" p-id="31143" xmlns:xlink="http://www.w3.org/1999/xlink" width="200" height="200"><path d="M706.65 512.38v224h-0.02l-96.97 55.99V568.38zM706.65 176.4v223.99l-96.99 56V232.4z" fill="#A4FFF8" p-id="31144"></path><path d="M706.65 176.4l-96.99 56-96.99-56 96.99-55.99zM706.65 512.38l-96.99 56V456.39z" fill="#7DDBD2" p-id="31145"></path><path d="M609.66 568.38v223.99l-96.99-55.99v-112z" fill="#3D827B" p-id="31146"></path><path d="M609.66 456.39v111.99l-96.99 56v-112z" fill="#A4FFF8" p-id="31147"></path><path d="M609.66 232.4v223.99l-96.99-56V176.4z" fill="#3D827B" p-id="31148"></path><path d="M609.66 456.39l-96.99 55.99V400.39z" fill="#7DDBD2" p-id="31149"></path><path d="M512.67 736.38v111.98l-96.99 55.99V680.37l96.99-55.99z" fill="#A4FFF8" p-id="31150"></path><path d="M512.67 512.38v112l-96.99-55.99v-0.01z" fill="#3D827B" p-id="31151"></path><path d="M512.67 400.39v111.99l-96.99 56V344.39l96.99-55.99z" fill="#A4FFF8" p-id="31152"></path><path d="M512.67 288.4l-96.99 55.99-96.99-55.99v-0.01l96.99-55.99zM512.67 624.38l-96.99 55.99-96.99-55.99 96.99-55.99z" fill="#7DDBD2" p-id="31153"></path><path d="M415.68 680.37v223.98l-96.99-55.99V624.38zM415.68 344.39v223.99l-96.99-56V288.4z" fill="#3D827B" p-id="31154"></path></svg>